<?xml version="1.0" encoding="UTF-8"?>
<svg id="a" data-name="Layer 1" xmlns="http://www.w3.org/2000/svg" viewBox="0 0 283.52 143.41">
  <defs>
    <style>
      .b {
        fill: #6d91cb;
      }

      .b, .c {
        stroke-width: 0px;
      }

      .c {
        fill: #231f20;
      }
    </style>
  </defs>
  <path class="b" d="M276.02,59.46l-61.05,42.17c3.82,4.82,7.81,7.61,11.98,8.37s8.18-.18,12.02-2.83c5.37-3.71,7.55-8.78,6.52-15.2l34.39-23.76c2.97,7.35,4.12,14.94,3.46,22.77-.66,7.83-3.14,15.34-7.42,22.51-4.28,7.17-10.21,13.37-17.78,18.6-9.11,6.29-18.52,9.96-28.25,11.01-9.73,1.05-19.06-.61-27.99-4.98-8.93-4.36-16.73-11.37-23.4-21.03-6.67-9.65-10.47-19.38-11.41-29.19-.94-9.8.81-19.07,5.23-27.8,4.42-8.73,11.24-16.27,20.46-22.64s18.46-9.99,28.06-11.11c9.6-1.12,18.78.44,27.54,4.68,8.76,4.24,16.4,11.07,22.92,20.51,1.74,2.52,3.32,5.16,4.73,7.91ZM232.81,66.22c-2.73-3.95-6.19-6.14-10.37-6.57-4.19-.43-8.25.72-12.2,3.45s-6.45,6.03-7.49,9.92c-1.05,3.88-.51,8.17,1.6,12.87l28.47-19.67Z"/>
  <path class="c" d="M182.43,0l-17.83,141h-39.2l16.53-90.67-43.13,90.67h-32.8l-18.39-81.24-8.41,81.24H0L17.83,0h47.4l22.88,89.72L135.23,0h47.2Z"/>
</svg>